<svg width="11" height="11" viewBox="0 0 11 11" fill="none" xmlns="http://www.w3.org/2000/svg">
<path fill-rule="evenodd" clip-rule="evenodd" d="M5.53884 1.27046C6.38571 0.735039 7.51071 0.587122 8.48259 0.89858C10.5966 1.58035 11.2529 3.88504 10.6659 5.71889C9.76019 8.5991 5.89196 10.7475 5.7279 10.8376C5.66957 10.8699 5.60498 10.8861 5.5404 10.8861C5.47582 10.8861 5.41175 10.8705 5.35342 10.8387C5.1904 10.7496 1.35029 8.63296 0.414357 5.71941C0.413836 5.71941 0.413836 5.71889 0.413836 5.71889C-0.173664 3.88452 0.480503 1.57931 2.59248 0.89858C3.58415 0.577747 4.66488 0.718893 5.53884 1.27046ZM2.83207 1.64233C1.12321 2.19337 0.694045 4.03139 1.15811 5.48087C1.88832 7.75275 4.77321 9.58973 5.53988 10.0444C6.30915 9.58504 9.21488 7.72775 9.92165 5.48296C10.3857 4.03191 9.95498 2.19389 8.24352 1.64233C7.41436 1.37618 6.44717 1.53816 5.77946 2.05483C5.63988 2.16212 5.44613 2.16421 5.3055 2.05796C4.59821 1.52618 3.67425 1.37046 2.83207 1.64233ZM7.74352 2.67665C8.45342 2.90634 8.95082 3.53499 9.01175 4.27822C9.02894 4.49332 8.86904 4.68186 8.65394 4.69905C8.643 4.70009 8.63259 4.70061 8.62165 4.70061C8.42009 4.70061 8.24925 4.54592 8.23259 4.34176C8.19821 3.91363 7.91175 3.55217 7.50394 3.4204C7.29821 3.35374 7.18571 3.13342 7.25186 2.92874C7.31904 2.72353 7.53727 2.61207 7.74352 2.67665Z" fill="#777777"/>
</svg>
